<svg xmlns="http://www.w3.org/2000/svg" viewBox="0 0 345 277" width="345" height="277">
<path d="M 339 67 L 330 60 L 329 74 L 316 77 L 296 74 L 280 65 L 262 65 L 256 57 L 273 48 L 276 36 L 270 32 L 265 41 L 240 48 L 238 67 L 198 68 L 152 92 L 126 112 L 100 119 L 53 144 L 45 143 L 42 137 L 61 116 L 59 105 L 29 98 L 7 110 L 10 123 L 17 125 L 30 123 L 46 109 L 51 110 L 33 132 L 33 143 L 41 153 L 56 153 L 71 143 L 76 144 L 66 182 L 50 192 L 49 219 L 44 226 L 45 245 L 53 250 L 69 248 L 70 240 L 61 231 L 64 209 L 71 201 L 92 193 L 107 177 L 111 178 L 113 188 L 105 202 L 123 220 L 134 245 L 139 248 L 160 247 L 155 234 L 138 223 L 132 209 L 148 181 L 185 181 L 194 190 L 196 198 L 189 203 L 168 202 L 155 213 L 157 220 L 166 223 L 183 222 L 217 203 L 211 175 L 226 171 L 245 181 L 243 190 L 223 195 L 222 218 L 231 219 L 239 209 L 250 204 L 255 193 L 269 180 L 268 172 L 245 147 L 247 138 L 259 129 L 266 135 L 282 136 L 289 147 L 307 143 L 310 130 L 304 121 L 304 107 L 320 102 L 315 92 L 332 89 L 337 84 Z" fill="#e1111b" fill-rule="evenodd"/>
</svg>