<svg xmlns="http://www.w3.org/2000/svg" viewBox="0 0 1080 1080" width="1080" height="1080">
<path d="M 259 545 L 259 609 L 261 609 L 261 545 Z M 294 169 L 304 223 L 355 281 L 335 304 L 318 346 L 267 393 L 262 414 L 304 448 L 348 433 L 434 428 L 488 469 L 349 491 L 305 506 L 543 489 L 706 491 L 839 506 L 840 500 L 714 474 L 728 454 L 725 439 L 745 431 L 755 381 L 740 343 L 700 320 L 687 323 L 681 372 L 654 379 L 623 376 L 617 353 L 593 334 L 592 323 L 576 320 L 561 329 L 552 353 L 569 371 L 561 396 L 566 422 L 587 457 L 605 460 L 610 470 L 547 462 L 493 364 L 473 363 L 420 385 L 396 372 L 417 328 L 466 286 L 481 286 L 486 296 L 522 281 L 511 301 L 528 309 L 639 315 L 736 299 L 798 309 L 776 282 L 631 227 L 604 228 L 508 262 L 447 264 L 443 239 L 401 214 L 362 169 L 368 207 L 395 246 L 385 256 L 337 224 Z M 645 302 L 644 303 L 638 303 L 637 302 L 632 303 L 628 300 L 626 300 L 625 299 L 623 299 L 622 298 L 619 298 L 617 296 L 616 296 L 613 294 L 611 294 L 609 292 L 608 292 L 601 285 L 600 282 L 599 282 L 598 281 L 598 279 L 596 277 L 596 273 L 595 272 L 595 271 L 593 271 L 592 270 L 592 266 L 590 264 L 590 262 L 587 262 L 585 260 L 584 260 L 581 258 L 579 258 L 578 257 L 578 255 L 579 254 L 579 253 L 580 252 L 582 252 L 583 251 L 593 251 L 597 254 L 601 254 L 604 252 L 606 252 L 607 251 L 608 251 L 610 249 L 613 249 L 614 248 L 616 248 L 618 246 L 620 246 L 620 245 L 621 244 L 623 244 L 623 243 L 624 242 L 628 242 L 629 243 L 632 243 L 633 244 L 633 245 L 638 245 L 639 244 L 641 244 L 641 243 L 644 239 L 645 239 L 646 238 L 650 238 L 651 239 L 651 242 L 649 244 L 649 249 L 648 250 L 646 250 L 646 251 L 644 253 L 644 254 L 643 255 L 642 255 L 642 256 L 639 259 L 636 260 L 636 261 L 635 262 L 634 262 L 632 264 L 632 265 L 627 269 L 627 270 L 626 271 L 625 271 L 621 275 L 620 275 L 620 280 L 621 281 L 622 281 L 623 282 L 623 284 L 624 284 L 625 285 L 625 286 L 626 286 L 627 287 L 627 288 L 630 290 L 631 293 L 632 293 L 633 294 L 635 294 L 636 295 L 636 296 L 638 296 L 639 297 L 639 298 L 643 298 L 645 300 Z" fill="#e1111b" fill-rule="evenodd"/>
<path d="M 772 537 L 772 539 L 771 540 L 771 542 L 769 545 L 769 547 L 767 550 L 767 552 L 766 553 L 766 555 L 765 556 L 764 561 L 762 564 L 762 566 L 761 567 L 761 568 L 760 569 L 760 571 L 758 574 L 757 579 L 755 582 L 754 587 L 752 590 L 751 595 L 749 598 L 749 600 L 748 601 L 748 603 L 747 604 L 747 606 L 746 607 L 745 612 L 762 612 L 763 611 L 766 611 L 767 610 L 767 608 L 768 607 L 768 604 L 769 603 L 769 601 L 771 599 L 797 599 L 798 600 L 798 602 L 799 603 L 799 606 L 800 607 L 801 612 L 820 612 L 821 611 L 823 611 L 823 608 L 821 605 L 820 600 L 817 595 L 817 593 L 816 592 L 815 587 L 813 585 L 813 582 L 811 579 L 810 574 L 807 569 L 807 566 L 804 561 L 804 558 L 802 555 L 802 553 L 801 552 L 801 550 L 799 547 L 799 544 L 798 543 L 797 540 L 795 538 L 792 538 L 791 537 Z M 783 559 L 785 559 L 786 560 L 786 562 L 787 563 L 787 566 L 788 567 L 788 569 L 789 570 L 789 572 L 790 573 L 790 576 L 791 577 L 791 579 L 792 580 L 792 583 L 791 584 L 784 584 L 783 583 L 777 583 L 776 582 L 776 579 L 777 578 L 777 575 L 778 574 L 778 572 L 779 571 L 779 568 L 780 567 L 780 565 L 782 563 L 782 560 Z M 595 537 L 595 555 L 618 555 L 619 556 L 619 612 L 633 612 L 634 611 L 640 611 L 640 557 L 642 555 L 663 555 L 664 554 L 664 539 L 661 537 Z M 464 537 L 463 542 L 462 543 L 462 544 L 461 545 L 461 547 L 459 550 L 459 552 L 458 553 L 458 555 L 456 558 L 455 563 L 453 566 L 453 568 L 452 569 L 452 570 L 451 571 L 451 573 L 449 576 L 449 579 L 446 584 L 445 589 L 443 592 L 443 595 L 442 596 L 442 598 L 440 600 L 440 602 L 439 603 L 439 605 L 438 606 L 438 608 L 437 609 L 437 612 L 455 612 L 456 611 L 458 611 L 459 610 L 459 607 L 460 606 L 461 601 L 463 599 L 489 599 L 490 600 L 490 602 L 491 603 L 491 607 L 493 609 L 493 612 L 512 612 L 513 611 L 515 611 L 515 609 L 513 607 L 513 604 L 512 603 L 511 598 L 508 593 L 508 591 L 507 590 L 506 585 L 504 582 L 503 577 L 502 576 L 502 575 L 501 574 L 501 572 L 499 569 L 499 567 L 498 566 L 498 564 L 497 563 L 497 561 L 496 560 L 495 555 L 493 553 L 493 551 L 492 550 L 491 545 L 489 542 L 489 540 L 487 538 L 485 538 L 484 537 Z M 475 559 L 477 559 L 478 560 L 478 562 L 479 563 L 479 566 L 480 567 L 480 569 L 481 570 L 481 572 L 482 573 L 482 575 L 483 576 L 483 579 L 484 580 L 484 583 L 483 584 L 478 584 L 477 583 L 469 583 L 468 582 L 468 578 L 469 577 L 469 576 L 470 575 L 470 572 L 471 571 L 471 569 L 472 568 L 472 565 L 473 564 L 473 563 L 474 562 L 474 560 Z M 262 537 L 262 611 L 276 612 L 280 610 L 280 572 L 282 569 L 285 570 L 295 608 L 295 612 L 311 611 L 321 571 L 323 570 L 323 563 L 324 562 L 327 563 L 327 612 L 341 612 L 344 611 L 344 538 L 341 537 L 315 537 L 315 541 L 306 575 L 301 576 L 291 539 L 287 537 Z M 280 566 L 281 565 L 283 565 L 284 566 L 284 568 L 283 569 L 281 569 L 280 568 Z" fill="#2e4768" fill-rule="evenodd"/>
</svg>